<mxfile host="app.diagrams.net" modified="2023-11-26T14:36:28.019Z" agent="Mozilla/5.0 (Windows NT 10.0; Win64; x64) AppleWebKit/537.36 (KHTML, like Gecko) Chrome/119.0.0.0 Safari/537.36" etag="vDc9iQQ82_S3nEO-JOzw" version="22.1.4" type="device">
  <diagram name="Page-1" id="aAgJEENKna_CweKSqzFz">
    <mxGraphModel dx="446" dy="241" grid="1" gridSize="10" guides="1" tooltips="1" connect="1" arrows="1" fold="1" page="1" pageScale="1" pageWidth="1169" pageHeight="827" math="0" shadow="0">
      <root>
        <mxCell id="0" />
        <mxCell id="1" parent="0" />
        <mxCell id="ufd1Icx--xXzhuxLlo66-1" value="" style="ellipse;whiteSpace=wrap;html=1;aspect=fixed;fillColor=#2aad27;strokeColor=#2AAD27;" parent="1" vertex="1">
          <mxGeometry x="40" y="120" width="10" height="10" as="geometry" />
        </mxCell>
        <mxCell id="ufd1Icx--xXzhuxLlo66-2" value="" style="ellipse;whiteSpace=wrap;html=1;aspect=fixed;fillColor=#000000;" parent="1" vertex="1">
          <mxGeometry x="110" y="150" width="10" height="10" as="geometry" />
        </mxCell>
        <mxCell id="ufd1Icx--xXzhuxLlo66-3" value="" style="ellipse;whiteSpace=wrap;html=1;aspect=fixed;strokeColor=#000000;fillColor=#000000;" parent="1" vertex="1">
          <mxGeometry x="180" y="120" width="10" height="10" as="geometry" />
        </mxCell>
        <mxCell id="ufd1Icx--xXzhuxLlo66-4" value="" style="ellipse;whiteSpace=wrap;html=1;aspect=fixed;fillColor=#CB2B3E;strokeColor=#CB2B3E;" parent="1" vertex="1">
          <mxGeometry x="360" y="120" width="10" height="10" as="geometry" />
        </mxCell>
        <mxCell id="ufd1Icx--xXzhuxLlo66-5" value="" style="ellipse;whiteSpace=wrap;html=1;aspect=fixed;strokeColor=#000000;fillColor=#000000;" parent="1" vertex="1">
          <mxGeometry x="290" y="150" width="10" height="10" as="geometry" />
        </mxCell>
        <mxCell id="ufd1Icx--xXzhuxLlo66-6" value="" style="endArrow=classicThin;html=1;rounded=0;endFill=1;" parent="1" source="ufd1Icx--xXzhuxLlo66-1" target="ufd1Icx--xXzhuxLlo66-2" edge="1">
          <mxGeometry width="50" height="50" relative="1" as="geometry">
            <mxPoint x="10" y="170" as="sourcePoint" />
            <mxPoint x="240" y="130" as="targetPoint" />
          </mxGeometry>
        </mxCell>
        <mxCell id="ufd1Icx--xXzhuxLlo66-7" value="" style="endArrow=classicThin;html=1;rounded=0;endFill=1;" parent="1" source="ufd1Icx--xXzhuxLlo66-2" target="ufd1Icx--xXzhuxLlo66-3" edge="1">
          <mxGeometry width="50" height="50" relative="1" as="geometry">
            <mxPoint x="140" y="110" as="sourcePoint" />
            <mxPoint x="130" y="100" as="targetPoint" />
          </mxGeometry>
        </mxCell>
        <mxCell id="ufd1Icx--xXzhuxLlo66-8" value="&lt;font color=&quot;#cb2b3e&quot; style=&quot;font-size: 27px;&quot;&gt;â€“&lt;/font&gt;" style="endArrow=classicThin;html=1;rounded=0;strokeColor=#2a81cb;endFill=1;fontSize=27;" parent="1" source="ufd1Icx--xXzhuxLlo66-3" target="ufd1Icx--xXzhuxLlo66-5" edge="1">
          <mxGeometry width="50" height="50" relative="1" as="geometry">
            <mxPoint x="190" y="150" as="sourcePoint" />
            <mxPoint x="240" y="160" as="targetPoint" />
          </mxGeometry>
        </mxCell>
        <mxCell id="ufd1Icx--xXzhuxLlo66-9" value="" style="endArrow=classicThin;html=1;rounded=0;endFill=1;" parent="1" source="ufd1Icx--xXzhuxLlo66-5" target="ufd1Icx--xXzhuxLlo66-4" edge="1">
          <mxGeometry width="50" height="50" relative="1" as="geometry">
            <mxPoint x="200" y="160" as="sourcePoint" />
            <mxPoint x="370" y="150" as="targetPoint" />
          </mxGeometry>
        </mxCell>
        <mxCell id="ufd1Icx--xXzhuxLlo66-10" value="" style="ellipse;whiteSpace=wrap;html=1;aspect=fixed;strokeColor=#2A81CB;fillColor=#2a81cb;" parent="1" vertex="1">
          <mxGeometry x="260" y="80" width="10" height="10" as="geometry" />
        </mxCell>
        <mxCell id="ufd1Icx--xXzhuxLlo66-15" value="" style="endArrow=classicThin;html=1;rounded=0;endFill=1;" parent="1" edge="1">
          <mxGeometry width="50" height="50" relative="1" as="geometry">
            <mxPoint x="70" y="190" as="sourcePoint" />
            <mxPoint x="100" y="190" as="targetPoint" />
          </mxGeometry>
        </mxCell>
        <mxCell id="ufd1Icx--xXzhuxLlo66-16" value="sequence" style="text;html=1;strokeColor=none;fillColor=none;align=left;verticalAlign=middle;whiteSpace=wrap;rounded=0;" parent="1" vertex="1">
          <mxGeometry x="110" y="180" width="60" height="20" as="geometry" />
        </mxCell>
        <mxCell id="ufd1Icx--xXzhuxLlo66-19" value="" style="endArrow=none;html=1;rounded=0;strokeColor=#2a81cb;" parent="1" edge="1">
          <mxGeometry width="50" height="50" relative="1" as="geometry">
            <mxPoint x="220" y="189.86" as="sourcePoint" />
            <mxPoint x="250" y="189.86" as="targetPoint" />
          </mxGeometry>
        </mxCell>
        <mxCell id="ufd1Icx--xXzhuxLlo66-20" value="selection criterion" style="text;html=1;strokeColor=none;fillColor=none;align=left;verticalAlign=middle;whiteSpace=wrap;rounded=0;" parent="1" vertex="1">
          <mxGeometry x="260" y="180" width="110" height="20" as="geometry" />
        </mxCell>
        <mxCell id="ufd1Icx--xXzhuxLlo66-23" value="+" style="endArrow=classicThin;html=1;rounded=0;strokeColor=#2a81cb;endFill=1;fontSize=27;fontColor=#2AAD27;" parent="1" source="ufd1Icx--xXzhuxLlo66-3" target="ufd1Icx--xXzhuxLlo66-10" edge="1">
          <mxGeometry width="50" height="50" relative="1" as="geometry">
            <mxPoint x="200" y="137" as="sourcePoint" />
            <mxPoint x="270" y="100" as="targetPoint" />
          </mxGeometry>
        </mxCell>
        <mxCell id="yUesBog3So3UWZzkB3Kt-1" value="+" style="endArrow=classicThin;html=1;rounded=0;strokeColor=#2a81cb;endFill=1;fontSize=27;fontColor=#2AAD27;" parent="1" source="ufd1Icx--xXzhuxLlo66-10" target="ufd1Icx--xXzhuxLlo66-5" edge="1">
          <mxGeometry width="50" height="50" relative="1" as="geometry">
            <mxPoint x="310" y="90" as="sourcePoint" />
            <mxPoint x="392" y="54" as="targetPoint" />
          </mxGeometry>
        </mxCell>
        <mxCell id="BcMQLIjTwVLWgY0stmMi-1" value="s" style="text;html=1;strokeColor=none;fillColor=none;align=center;verticalAlign=middle;whiteSpace=wrap;rounded=0;fontFamily=Times New Roman;fontSize=18;fontStyle=2" vertex="1" parent="1">
          <mxGeometry x="40" y="90" width="10" height="30" as="geometry" />
        </mxCell>
        <mxCell id="BcMQLIjTwVLWgY0stmMi-2" value="t" style="text;html=1;strokeColor=none;fillColor=none;align=center;verticalAlign=middle;whiteSpace=wrap;rounded=0;fontFamily=Times New Roman;fontSize=18;fontStyle=2" vertex="1" parent="1">
          <mxGeometry x="360" y="90" width="10" height="30" as="geometry" />
        </mxCell>
      </root>
    </mxGraphModel>
  </diagram>
</mxfile>
